<!DOCTYPE svg PUBLIC "-//W3C//DTD SVG 1.1//EN" "http://www.w3.org/Graphics/SVG/1.1/DTD/svg11.dtd">
<svg version="1.1" xmlns="http://www.w3.org/2000/svg" xmlns:xlink="http://www.w3.org/1999/xlink" x="0px" y="0px" viewBox="0 0 1000 1000" enable-background="new 0 0 1000 1000" xml:space="preserve">
  <g>
    <path 
      d="M610.9,499.9L967,856c30.7,30.7,30.7,80.4,0,111c-30.7,30.7-80.4,30.7-111,0L499.9,610.9L143.7,967.1c-30.6,30.6-80.1,30.6-110.7,0c-30.6-30.6-30.6-80.1,0-110.7l356.2-356.2L33,144C2.3,113.3,2.3,63.6,33,33c30.7-30.7,80.4-30.7,111,0l356.2,356.2L853.9,35.5c30.6-30.6,80.1-30.6,110.7,0c30.6,30.6,30.6,80.1,0,110.7L610.9,499.9z"
      fill="currentColor"
    />
  </g>
</svg>